# xmcd
#
# Track frame offsets: 
#        150
#        18602
#        34383
#        53706
#        72026
#        88057
#        104573
#        121611
#        139537
#        160002
#        179502
#        199417
#        211547
#        229369
#        242377
#        257444
#        272476
#
# Disc length: 3841 seconds
#
# Revision: 0
# Processed by: cddbd v1.5.2PL0 Copyright (c) Steve Scherf et al.
# Submitted via: ExactAudioCopyFreeDBPlugin 1.0
#
DISCID=e40eff11
DTITLE=Various Artist - Totally Country Vol. 6
DYEAR=2007
DGENRE=Country
TTITLE0=Brad Paisley - The World
TTITLE1=Faith Hill - Sunshine and Summertime
TTITLE2=Kenny Chesney - Who You'd Be Today
TTITLE3=Carrie Underwood - Don't Forget to Remember Me
TTITLE4=The Wreckers - Leave the Pieces
TTITLE5=Sugarland - Something More
TTITLE6=Gary Allan - Life Ain't Always Beautiful
TTITLE7=Lonestar - Mountains
TTITLE8=Billy Currington - Must Be Doin' Somethin' Right
TTITLE9=Montgomery Gentry - Something to Be Proud Of
TTITLE10=Keith Anderson - Every Time I Hear Your Name
TTITLE11=Blake Shelton - Nobody But Me
TTITLE12=Phil Vassar - Last Day of My Life
TTITLE13=Gretchen Wilson - California Girls
TTITLE14=Martina McBride - (I Never Promised You A) Rose Garden
TTITLE15=George Strait - She Let Herself Go
TTITLE16=Big and Rich - 8th of November
EXTD=
EXTT0=
EXTT1=
EXTT2=
EXTT3=
EXTT4=
EXTT5=
EXTT6=
EXTT7=
EXTT8=
EXTT9=
EXTT10=
EXTT11=
EXTT12=
EXTT13=
EXTT14=
EXTT15=
EXTT16=
PLAYORDER=
